<svg version="1.1" xmlns="http://www.w3.org/2000/svg" xmlns:xlink="http://www.w3.org/1999/xlink" width="700" height="718" viewBox="-170,0,700,718"><g data-paper-data="{&quot;layerid&quot;:&quot;document&quot;,&quot;name&quot;:&quot;document&quot;,&quot;stage&quot;:false,&quot;vgx&quot;:{&quot;signed&quot;:true,&quot;selected&quot;:false,&quot;unsigned&quot;:false,&quot;contained&quot;:false,&quot;visible&quot;:true,&quot;id&quot;:&quot;5hsl9wofn_1680335205990112&quot;,&quot;changeset&quot;:&quot;552ygvrbh_1680335205990113&quot;,&quot;staticid&quot;:&quot;km9bhsfd4_1680335205990114&quot;,&quot;name&quot;:&quot;document&quot;,&quot;altname&quot;:&quot;&quot;,&quot;owner&quot;:null,&quot;layer&quot;:true,&quot;class&quot;:&quot;item&quot;,&quot;type&quot;:&quot;default&quot;,&quot;ui&quot;:false,&quot;actor&quot;:false,&quot;props&quot;:{},&quot;locked&quot;:false,&quot;strokeScaling&quot;:true,&quot;container&quot;:false,&quot;layerid&quot;:&quot;document&quot;}}" id="document" fill-opacity="0" fill="#ffffff" fill-rule="nonzero" stroke="#000000" stroke-width="0" stroke-linecap="butt" stroke-linejoin="miter" stroke-miterlimit="10" stroke-dasharray="" stroke-dashoffset="0" font-family="none" font-weight="none" font-size="none" text-anchor="none" style="mix-blend-mode: normal"><rect x="-170" y="12.85714" transform="scale(1,1.4)" width="700" height="500" data-paper-data="{&quot;vgx&quot;:{&quot;signed&quot;:true,&quot;selected&quot;:false,&quot;unsigned&quot;:false,&quot;contained&quot;:false,&quot;visible&quot;:true,&quot;id&quot;:&quot;pacuyv0ex_1680335206100234&quot;,&quot;changeset&quot;:&quot;php77jt5b_1680335206100235&quot;,&quot;staticid&quot;:&quot;job9gz59v_1680335206100236&quot;,&quot;name&quot;:&quot;Shape&quot;,&quot;altname&quot;:&quot;&quot;,&quot;owner&quot;:null,&quot;layer&quot;:false,&quot;class&quot;:&quot;document&quot;,&quot;type&quot;:&quot;document&quot;,&quot;ui&quot;:false,&quot;actor&quot;:true,&quot;props&quot;:{},&quot;locked&quot;:false,&quot;strokeScaling&quot;:true,&quot;container&quot;:false},&quot;v_data&quot;:null}" id="Shape 1" vector-effect="non-scaling-stroke"/></g><g fill="none" fill-rule="nonzero" stroke="none" stroke-width="none" stroke-linecap="none" stroke-linejoin="none" stroke-miterlimit="10" stroke-dasharray="" stroke-dashoffset="0" font-family="none" font-weight="none" font-size="none" text-anchor="none" style="mix-blend-mode: normal"><g data-paper-data="{&quot;layerid&quot;:&quot;stage&quot;,&quot;name&quot;:&quot;stage&quot;,&quot;stage&quot;:false,&quot;vgx&quot;:{&quot;signed&quot;:true,&quot;selected&quot;:false,&quot;unsigned&quot;:false,&quot;contained&quot;:false,&quot;visible&quot;:true,&quot;id&quot;:&quot;2lajwbg7w_1680335205991115&quot;,&quot;changeset&quot;:&quot;dgwx6r8ou_1680335205991116&quot;,&quot;staticid&quot;:&quot;cttvor9do_1680335205991117&quot;,&quot;name&quot;:&quot;stage&quot;,&quot;altname&quot;:&quot;&quot;,&quot;owner&quot;:null,&quot;layer&quot;:true,&quot;class&quot;:&quot;item&quot;,&quot;type&quot;:&quot;default&quot;,&quot;ui&quot;:false,&quot;actor&quot;:false,&quot;props&quot;:{},&quot;locked&quot;:false,&quot;strokeScaling&quot;:true,&quot;container&quot;:false,&quot;layerid&quot;:&quot;stage&quot;}}" id="stage"><g id="layer1 1"><path d="M-3.57276,-343.56812c-72.61209,37.29445 -136.65039,103.15429 -186.4066,188.84884c-50.83372,-87.55032 -116.57479,-154.39758 -191.136,-191.23147" id="Path 1" fill-opacity="0" fill="#000000" stroke="#000000" stroke-width="36" stroke-linecap="butt" stroke-linejoin="bevel" visibility="hidden"/><path d="M-225.10406,-323.18846c0,-18.09285 14.66715,-32.76 32.76,-32.76c18.09285,0 32.76,14.66715 32.76,32.76c0,18.09285 -14.66715,32.76 -32.76,32.76c-18.09285,0 -32.76,-14.66715 -32.76,-32.76z" id="Path 1" fill="#000000" stroke="#000000" stroke-width="0" stroke-linecap="round" stroke-linejoin="round" visibility="hidden"/><path d="M420.67798,892.01102c-84.22724,28.28412 -158.50921,78.23224 -216.2245,143.22301c-58.96516,-66.39819 -135.22228,-117.09517 -221.71042,-145.03" id="Path 1" fill-opacity="0" fill="#000000" stroke="#000000" stroke-width="17" stroke-linecap="butt" stroke-linejoin="bevel" visibility="hidden"/><path d="M-307.48374,-395.95202c33.67267,-31.69924 73.05501,-49.91644 115.13969,-49.91644c42.08468,0 81.46702,18.21717 115.13969,49.91644" id="Path 1" fill-opacity="0" fill="#000000" stroke="#000000" stroke-width="36" stroke-linecap="square" stroke-linejoin="round" visibility="hidden"/><path d="M569.29935,-260.96836c-72.61209,24.38367 -136.65039,67.44382 -186.4066,123.4722c-50.83372,-57.24171 -116.57479,-100.94745 -191.136,-125.03" id="Path 1" fill-opacity="0" fill="#000000" stroke="#000000" stroke-width="36" stroke-linecap="butt" stroke-linejoin="bevel" visibility="hidden"/><path d="M337.76805,-300.29387c0,-23.6157 19.1443,-42.76 42.76,-42.76c23.6157,0 42.76,19.1443 42.76,42.76c0,23.6157 -19.1443,42.76 -42.76,42.76c-23.6157,0 -42.76,-19.1443 -42.76,-42.76z" id="Path 1" fill="#000000" stroke="#000000" stroke-width="0" stroke-linecap="round" stroke-linejoin="round" visibility="hidden"/><path d="M274.52984,-378.52748c30.99924,-31.69924 67.25483,-49.91644 105.99821,-49.91644c38.74338,0 74.99897,18.21717 105.99821,49.91644" id="Path 1" fill-opacity="0" fill="#000000" stroke="#000000" stroke-width="36" stroke-linecap="square" stroke-linejoin="round" visibility="hidden"/><path d="M-225.10406,1266.94233c-72.61209,37.29445 -136.65039,103.15429 -186.4066,188.84884c-50.83372,-87.55032 -116.57479,-154.39758 -191.136,-191.23147" id="Path 1" fill-opacity="0" fill="#000000" stroke="#000000" stroke-width="36" stroke-linecap="butt" stroke-linejoin="bevel" visibility="hidden"/><path d="M-446.63536,1287.32199c0,-18.09285 14.66715,-32.76 32.76,-32.76c18.09285,0 32.76,14.66715 32.76,32.76c0,18.09285 -14.66715,32.76 -32.76,32.76c-18.09285,0 -32.76,-14.66715 -32.76,-32.76z" id="Path 1" fill="#000000" stroke="#000000" stroke-width="0" stroke-linecap="round" stroke-linejoin="round" visibility="hidden"/><path d="M-529.01504,1214.55843c33.67267,-31.69924 73.05501,-49.91644 115.13969,-49.91644c42.08468,0 81.46702,18.21717 115.13969,49.91644" id="Path 1" fill-opacity="0" fill="#000000" stroke="#000000" stroke-width="36" stroke-linecap="square" stroke-linejoin="round" visibility="hidden"/><path d="M368.7713,390.00168c-72.61209,24.38367 -136.65039,67.44382 -186.4066,123.4722c-50.83372,-57.24171 -116.57479,-100.94745 -191.136,-125.03" id="Path 1" fill-opacity="0" fill="#000000" stroke="#ffffff" stroke-width="40" stroke-linecap="butt" stroke-linejoin="bevel"/><path d="M132.24,350.67617c0,-26.37712 21.38288,-47.76 47.76,-47.76c26.37712,0 47.76,21.38288 47.76,47.76c0,26.37712 -21.38288,47.76 -47.76,47.76c-26.37712,0 -47.76,-21.38288 -47.76,-47.76z" id="Path 1" fill="#ffffff" stroke="#fbfbfb" stroke-width="0" stroke-linecap="round" stroke-linejoin="round"/><path d="M74.00179,272.44256c30.99924,-31.69924 67.25483,-49.91644 105.99821,-49.91644c38.74338,0 74.99897,18.21717 105.99821,49.91644" id="Path 1" fill-opacity="0" fill="#000000" stroke="#0277bd" stroke-width="40" stroke-linecap="square" stroke-linejoin="round"/></g><g id="Layer2 1" fill-opacity="0" fill="#000000" stroke="#000000" stroke-width="1" stroke-linecap="round" stroke-linejoin="round"><path d="M46.97341,338.797c0,-65.04151 59.55803,-117.76807 133.02659,-117.76807c73.46856,0 133.02659,52.72656 133.02659,117.76807c0,65.04151 -59.55803,117.76807 -133.02659,117.76807c-73.46856,0 -133.02659,-52.72656 -133.02659,-117.76807z" id="Path 1" visibility="hidden"/><path d="M-175.39385,442.64379c84.71353,-78.55689 222.28286,-67.94493 307.2697,23.70248c84.98684,91.64741 85.20839,229.62525 0.49486,308.18213c-84.71353,78.55689 -222.28286,67.94493 -307.2697,-23.70248c-84.98684,-91.64741 -85.20839,-229.62525 -0.49486,-308.18213z" id="Path 1" visibility="hidden"/><path d="M324.21466,247.48434l99.07339,322.69742" id="Path 1" visibility="hidden"/><path d="M40.95464,247.48434l-113.68791,317.84308" id="Path 1" visibility="hidden"/><path d="M264.28742,321.94127l75.94428,-74.82074" id="Path 1" visibility="hidden"/><path d="M101.20338,327.08875l-75.94428,-74.82074" id="Path 1" visibility="hidden"/><path d="M535.39386,442.64378c-84.71353,-78.55689 -222.28286,-67.94493 -307.2697,23.70248c-84.98684,91.64741 -85.20839,229.62525 -0.49486,308.18213c84.71353,78.55689 222.28286,67.94493 307.2697,-23.70248c84.98684,-91.64741 85.20839,-229.62525 0.49486,-308.18213z" id="Path 1" visibility="hidden"/></g></g></g></svg>